<svg xmlns="http://www.w3.org/2000/svg" width="120" height="72" fill="none" viewBox="0 0 120 72">
    <path fill="#FA5738" d="M5.53 70.248h-.034a2.328 2.328 0 0 1-1.106.94c-.47.2-.938.268-1.475.268-.368 0-.737-.067-1.105-.168a2.74 2.74 0 0 1-.939-.47c-.268-.201-.469-.47-.636-.805C.067 69.71 0 69.34 0 68.939c0-.47.1-.873.268-1.175a2.05 2.05 0 0 1 .704-.805c.301-.202.637-.37 1.005-.504a12 12 0 0 1 1.173-.268c.402-.067.804-.101 1.206-.101h1.14c0-.436-.168-.806-.47-1.074a1.752 1.752 0 0 0-1.139-.403c-.402 0-.804.1-1.14.269a3.008 3.008 0 0 0-.904.704l-1.34-1.376a4.277 4.277 0 0 1 1.642-.973 5.512 5.512 0 0 1 1.943-.336c.737 0 1.34.101 1.81.269.469.168.838.47 1.14.805.3.37.468.806.602 1.31.1.503.168 1.107.168 1.812v4.128H5.496v-.973h.033zm-.604-2.551c-.201 0-.436 0-.704.034-.268 0-.57.067-.804.134a1.452 1.452 0 0 0-.67.369c-.201.168-.268.37-.268.638 0 .302.134.537.368.67.268.135.537.236.805.236.234 0 .469-.034.703-.1.235-.068.436-.169.604-.303.167-.134.335-.268.435-.47.1-.201.168-.403.168-.671v-.537h-.637zM17.258 71.255h-2.413v-1.108h-.034c-.1.168-.2.302-.335.47a1.485 1.485 0 0 1-.503.403 2.236 2.236 0 0 1-.703.302c-.268.067-.536.1-.838.1-.637 0-1.14-.1-1.542-.302a2.455 2.455 0 0 1-.938-.805 3.23 3.23 0 0 1-.435-1.208c-.067-.47-.1-.974-.1-1.544v-4.498h2.512v3.994c0 .235 0 .47.034.739 0 .268.067.47.134.704.067.202.2.403.402.538.168.134.436.2.737.2.302 0 .603-.066.804-.167.202-.1.37-.268.47-.47.1-.201.167-.403.2-.671.034-.235.034-.504.034-.772v-4.061h2.514v8.156zM27.513 71.255H25.2v-1.074h-.034c-.1.134-.235.302-.402.436a2.202 2.202 0 0 1-.57.403c-.2.134-.469.235-.703.302-.268.067-.537.1-.805.1-.603 0-1.139-.1-1.642-.301-.502-.202-.905-.504-1.273-.873-.335-.37-.637-.805-.804-1.342a4.53 4.53 0 0 1-.302-1.679c0-.57.1-1.107.268-1.644.168-.504.402-.974.737-1.376a3.322 3.322 0 0 1 1.173-.974 3.37 3.37 0 0 1 1.542-.369c.536 0 1.005.067 1.474.235.47.168.838.436 1.106.84H25v-5.404h2.513v12.72zM25.2 67.194c0-.604-.168-1.108-.537-1.477-.335-.37-.837-.57-1.474-.57s-1.14.2-1.475.57c-.368.37-.536.873-.536 1.477 0 .604.168 1.107.537 1.51.335.37.837.57 1.474.57s1.14-.2 1.474-.57c.37-.403.537-.906.537-1.51zM29.22 60.548c0-.403.135-.739.437-1.04.301-.27.636-.437 1.038-.437s.738.134 1.04.436c.267.302.435.638.435 1.04 0 .403-.134.739-.436 1.041-.302.269-.637.436-1.039.436-.402 0-.737-.134-1.038-.436a1.397 1.397 0 0 1-.436-1.04zm.202 2.55h2.513v8.156h-2.513v-8.156zM41.286 69.845a4 4 0 0 1-1.508 1.175 4.645 4.645 0 0 1-1.91.403c-.637 0-1.206-.101-1.776-.302a4.481 4.481 0 0 1-1.44-.873 4.31 4.31 0 0 1-.973-1.343 4.282 4.282 0 0 1-.368-1.745c0-.638.134-1.242.368-1.745.235-.537.57-.974.972-1.343s.871-.671 1.441-.872a5.196 5.196 0 0 1 1.776-.303c.57 0 1.106.101 1.575.303.47.201.871.503 1.206.872.336.37.57.84.771 1.343.168.537.268 1.107.268 1.745v.806h-5.83c.1.47.335.872.67 1.14a1.92 1.92 0 0 0 1.24.437c.402 0 .77-.1 1.038-.269.302-.167.537-.436.738-.704l1.742 1.275zm-2.145-3.591c0-.437-.134-.772-.402-1.074-.301-.302-.67-.437-1.105-.437-.269 0-.537.034-.738.135-.2.1-.402.201-.536.335a1.031 1.031 0 0 0-.335.504c-.067.201-.134.369-.134.57h3.25v-.033zM43.128 63.099h2.413v1.108h.033c.067-.168.201-.303.335-.47.134-.168.302-.303.503-.403.2-.134.435-.235.67-.302.268-.067.536-.134.838-.134.636 0 1.14.1 1.541.302.402.201.704.47.905.805.201.336.369.739.436 1.208.067.47.1.974.1 1.51v4.498H48.39v-3.994c0-.235 0-.47-.034-.738-.033-.269-.067-.47-.167-.705a1.097 1.097 0 0 0-.369-.504c-.167-.134-.435-.2-.737-.2-.335 0-.603.066-.804.167-.201.134-.369.268-.47.47a1.97 1.97 0 0 0-.2.671c-.034.235-.034.503-.034.772v4.061h-2.513V63.1h.067zM58.074 65.75a1.578 1.578 0 0 0-.502-.436 1.8 1.8 0 0 0-.704-.168c-.637 0-1.14.201-1.475.57-.335.37-.536.873-.536 1.477 0 .604.168 1.108.536 1.51.369.37.838.571 1.475.571.268 0 .502-.067.704-.168.2-.134.368-.268.502-.436l1.676 1.745a3.246 3.246 0 0 1-1.374.84 5.196 5.196 0 0 1-3.284-.067 4.147 4.147 0 0 1-1.441-.873 4.307 4.307 0 0 1-.972-1.343c-.235-.537-.335-1.108-.335-1.745 0-.638.1-1.242.335-1.746.235-.537.57-.973.972-1.342.402-.37.871-.671 1.44-.873a5.196 5.196 0 0 1 3.285-.067c.536.168 1.005.437 1.374.84l-1.676 1.711zM67.994 69.845a3.866 3.866 0 0 1-1.542 1.175 4.645 4.645 0 0 1-1.91.403c-.637 0-1.206-.101-1.776-.302a4.148 4.148 0 0 1-1.441-.873 4.31 4.31 0 0 1-.972-1.343 4.283 4.283 0 0 1-.368-1.745c0-.638.1-1.242.368-1.745.235-.537.57-.974.972-1.343s.871-.671 1.441-.872a5.195 5.195 0 0 1 1.776-.303c.57 0 1.106.101 1.575.303.47.201.871.503 1.206.872.336.37.57.84.771 1.343.168.537.268 1.107.268 1.745v.806h-5.83c.1.47.301.872.636 1.14a1.92 1.92 0 0 0 1.24.437c.402 0 .77-.1 1.039-.269.268-.167.536-.436.737-.704l1.81 1.275zm-2.112-3.591c0-.437-.134-.772-.402-1.074-.301-.302-.67-.437-1.106-.437-.268 0-.536.034-.737.135-.2.1-.402.201-.536.335a1.326 1.326 0 0 0-.335.504c-.067.201-.134.369-.134.57h3.25v-.033z"/>
    <path fill="#212E46" d="M69.936 58.568h1.307v5.974h.033a4.43 4.43 0 0 1 1.24-1.007c.47-.235 1.005-.335 1.575-.335.603 0 1.173.1 1.676.302a3.811 3.811 0 0 1 2.145 2.182c.2.503.3 1.04.3 1.644 0 .604-.1 1.141-.3 1.644-.202.504-.47.94-.839 1.31-.335.369-.77.67-1.24.872a3.946 3.946 0 0 1-1.54.302 3.669 3.669 0 0 1-1.844-.47c-.536-.302-.905-.671-1.173-1.14h-.033v1.409h-1.307V58.568zm1.307 8.76c0 .403.067.805.2 1.141.135.37.302.671.57.94.235.268.537.47.872.637.335.168.737.235 1.14.235.401 0 .803-.067 1.138-.235.336-.167.637-.369.872-.637.234-.269.435-.57.57-.94a3.14 3.14 0 0 0 .2-1.141c0-.403-.067-.806-.2-1.141-.135-.336-.302-.672-.57-.94a2.268 2.268 0 0 0-.872-.604c-.335-.168-.737-.235-1.139-.235s-.804.067-1.14.235c-.334.134-.636.369-.87.604-.235.268-.436.57-.57.94-.134.369-.201.738-.201 1.14zM86.826 69.41c0 .369 0 .704.034 1.006.033.302.033.605.033.84h-1.24c0-.202 0-.437-.033-.638v-.638h-.034c-.1.201-.2.37-.368.537a3.869 3.869 0 0 1-.57.47c-.234.134-.469.268-.737.336-.268.067-.57.134-.905.134-.502 0-.972-.067-1.34-.235a2.677 2.677 0 0 1-.938-.671 2.422 2.422 0 0 1-.537-1.007 5.38 5.38 0 0 1-.167-1.31v-4.866h1.307V68.1c0 .672.134 1.175.435 1.544.302.37.737.571 1.34.571.436 0 .805-.067 1.107-.235.301-.134.57-.336.737-.604.2-.269.335-.604.435-.94.1-.37.134-.772.134-1.242v-3.826h1.307v6.041zM88.87 60.347c0-.268.1-.47.268-.671.2-.202.402-.302.67-.302s.502.1.67.302c.168.201.268.403.268.671 0 .269-.1.503-.268.671a.935.935 0 0 1-.67.269c-.268 0-.503-.1-.704-.269-.201-.168-.234-.402-.234-.67zm.301 3.054h1.307v7.854h-1.307v-7.854zM92.856 58.568h1.307v12.687h-1.307V58.568zM103.045 69.879c-.268.436-.67.838-1.207 1.14a3.666 3.666 0 0 1-1.843.47c-.536 0-1.072-.1-1.541-.302a3.615 3.615 0 0 1-1.24-.872 4.379 4.379 0 0 1-.838-1.31 4.352 4.352 0 0 1-.301-1.644c0-.604.1-1.14.301-1.644a3.81 3.81 0 0 1 2.145-2.182 4.508 4.508 0 0 1 1.675-.302c.57 0 1.106.1 1.575.336.47.234.905.57 1.24 1.007h.034V58.6h1.307v12.687h-1.307v-1.41zm0-2.551a3.14 3.14 0 0 0-.201-1.142c-.134-.335-.302-.67-.57-.94a2.27 2.27 0 0 0-.871-.603c-.335-.168-.737-.235-1.14-.235-.435 0-.804.067-1.139.235-.335.134-.637.369-.871.604-.235.268-.436.57-.57.94-.134.369-.201.738-.201 1.14 0 .403.067.806.201 1.142.134.369.302.671.57.94.234.268.536.47.871.637.335.168.737.235 1.139.235.436 0 .805-.067 1.14-.235.335-.168.636-.369.871-.637a2.93 2.93 0 0 0 .57-.94c.134-.336.201-.705.201-1.141zM113.567 69.845c-.469.604-.972 1.04-1.542 1.275a5.011 5.011 0 0 1-1.943.37c-.604 0-1.173-.101-1.642-.336-.47-.235-.905-.504-1.24-.873a4.32 4.32 0 0 1-.805-1.309 5.09 5.09 0 0 1-.268-1.61c0-.605.101-1.176.302-1.679.201-.504.469-.94.838-1.309.368-.37.77-.638 1.273-.84a4.289 4.289 0 0 1 1.609-.301c.536 0 1.038.1 1.508.268.469.168.837.437 1.172.806.336.37.57.772.771 1.309.168.503.268 1.074.268 1.745v.403h-6.333c.033.336.1.671.234.973.134.302.335.57.537.806a2.404 2.404 0 0 0 1.742.738c.57 0 1.039-.1 1.441-.302.402-.201.737-.503 1.072-.873l1.006.739zm-1.106-3.222c-.034-.672-.235-1.209-.67-1.611-.402-.403-.972-.604-1.709-.604-.738 0-1.307.201-1.743.604-.436.403-.704.94-.804 1.61h4.926zM115.644 65.28c0-.369 0-.704-.034-1.007-.033-.301-.033-.604-.033-.872h1.24c0 .201 0 .436.033.638v.67h.034c.1-.2.201-.368.368-.57.168-.167.369-.335.57-.47.234-.134.469-.268.737-.335s.57-.135.905-.135h.268c.1 0 .167.034.268.068l-.067 1.342a2.546 2.546 0 0 0-.704-.1c-.804 0-1.374.268-1.742.771-.369.537-.536 1.242-.536 2.148v3.827h-1.307V65.28z"/>
    <path fill="#FC8677" d="M59.313 17.654v7.552l17.727 10.27 5.227-4.531-22.954-13.291zM59.513 44.069L40.647 33.16l-4.088 5.303L59.513 51.62V44.07z"/>
    <path fill="#FA5738" d="M82.469 30.878l.033 7.418L59.514 51.62V44.07l22.955-13.19zM59.312 17.654v7.552L36.56 38.463l.134-7.72 22.62-13.09z"/>
    <path fill="#FC8677" d="M59.313 0v7.518l17.995 10.203 5.26-4.463L59.314 0z"/>
    <path fill="#FA5738" d="M59.312 0v7.518L36.56 20.81l.134-7.753L59.313 0zM77.274 17.721l5.294-4.463-.067 17.62-5.227 3.457V17.721z"/>
</svg>
